<?xml version="1.0" encoding="UTF-8" standalone="no"?><!DOCTYPE svg PUBLIC "-//W3C//DTD SVG 1.1//EN" "http://www.w3.org/Graphics/SVG/1.1/DTD/svg11.dtd"><svg width="100%" height="100%" viewBox="0 0 84 84" version="1.1" xmlns="http://www.w3.org/2000/svg" xmlns:xlink="http://www.w3.org/1999/xlink" xml:space="preserve" xmlns:serif="http://www.serif.com/" style="fill-rule:evenodd;clip-rule:evenodd;stroke-linejoin:round;stroke-miterlimit:2;"><g><clipPath id="_clip1"><rect id="_-埋め込みドキュメント-" serif:id="(埋め込みドキュメント)" x="1.524" y="7.6" width="68.133" height="68.133"/></clipPath><g clip-path="url(#_clip1)"><g><path d="M35.591,34.014c-3.199,0.001 -6.075,1.3 -8.177,3.418c-2.097,2.121 -3.393,5.033 -3.396,8.273c0.003,3.241 1.299,6.153 3.396,8.27c2.102,2.12 4.978,3.42 8.177,3.42c3.194,0 6.073,-1.3 8.174,-3.42c2.1,-2.117 3.396,-5.029 3.397,-8.27c-0.001,-3.24 -1.298,-6.152 -3.397,-8.273c-2.101,-2.118 -4.98,-3.417 -8.174,-3.418Zm0,18.898c-3.947,0 -7.145,-3.225 -7.145,-7.208c0,-3.981 3.198,-7.207 7.145,-7.207c3.946,0 7.144,3.226 7.144,7.207c0,3.983 -3.198,7.208 -7.144,7.208Z" style="fill:#2d3748;fill-rule:nonzero;"/><path d="M67.631,25.644c-1.244,-1.259 -2.995,-2.052 -4.909,-2.052l-7.505,0c-0.605,0.003 -1.169,-0.359 -1.429,-0.944l-2.249,-5.033c-1.112,-2.494 -3.584,-4.116 -6.328,-4.116l-19.241,0c-2.743,0 -5.216,1.622 -6.331,4.116l-2.246,5.033c-0.26,0.585 -0.825,0.947 -1.428,0.944l-7.506,0c-1.913,0 -3.668,0.793 -4.914,2.052c-1.246,1.255 -2.021,3.01 -2.021,4.92l0,32.301c0,1.912 0.775,3.665 2.021,4.92c1.246,1.26 3.002,2.052 4.914,2.049l54.263,0c1.914,0.003 3.666,-0.79 4.909,-2.049c1.252,-1.255 2.026,-3.008 2.026,-4.92l0,-32.301c0,-1.91 -0.774,-3.667 -2.026,-4.92Zm-20.935,31.237c-2.831,2.863 -6.771,4.643 -11.105,4.643c-4.337,0 -8.275,-1.779 -11.107,-4.643c-2.837,-2.855 -4.594,-6.821 -4.592,-11.177c-0.002,-4.355 1.755,-8.317 4.592,-11.178c2.832,-2.86 6.77,-4.642 11.107,-4.639c4.334,-0.003 8.274,1.779 11.105,4.639c2.838,2.861 4.596,6.823 4.592,11.178c0.004,4.356 -1.754,8.322 -4.592,11.177Zm16.303,-20.731l-4.763,0l0,-4.764l4.763,0l0,4.764Z" style="fill:#2d3748;fill-rule:nonzero;"/></g></g><g id="_-埋め込みドキュメント-1" serif:id="(埋め込みドキュメント)"></g></g></svg>