<?xml version="1.0" encoding="UTF-8" standalone="no"?><!DOCTYPE svg PUBLIC "-//W3C//DTD SVG 1.1//EN" "http://www.w3.org/Graphics/SVG/1.1/DTD/svg11.dtd"><svg width="100%" height="100%" viewBox="0 0 200 70" version="1.1" xmlns="http://www.w3.org/2000/svg" xmlns:xlink="http://www.w3.org/1999/xlink" xml:space="preserve" xmlns:serif="http://www.serif.com/" style="fill-rule:evenodd;clip-rule:evenodd;stroke-linejoin:round;stroke-miterlimit:2;"><text id="FukuroText" x="3.23px" y="54.787px" style="font-family:'Jost-Bold', 'Jost*';font-weight:700;font-size:42.525px;">F<tspan x="25.896px 50.348px 74.459px 98.911px 115.751px " y="54.787px 54.787px 54.787px 54.787px 54.787px ">ukuro</tspan></text><g id="contents"><path d="M153.46,55.07c-3.673,-5.806 -5.779,-13.106 -5.779,-20.027c0,-0.594 0.022,-1.181 0.062,-1.762c-2.836,2.695 -4.582,6.369 -4.582,10.419c0,7.13 5.409,13.095 12.651,14.602c-0.826,-0.984 -1.612,-2.062 -2.352,-3.232" style="fill-rule:nonzero;"/><path d="M189.753,33.281c0.04,0.581 0.062,1.168 0.062,1.762c0,6.921 -2.106,14.221 -5.779,20.027c-0.74,1.171 -1.526,2.248 -2.352,3.232c7.242,-1.507 12.651,-7.472 12.651,-14.602c0,-4.05 -1.747,-7.724 -4.582,-10.419" style="fill-rule:nonzero;"/><path d="M161.893,33.802c-1.315,0 -2.386,-1.07 -2.386,-2.386c0,-1.315 1.071,-2.385 2.386,-2.385c1.316,0 2.386,1.07 2.386,2.385c0,1.316 -1.07,2.386 -2.386,2.386" style="fill-rule:nonzero;"/><path d="M175.603,33.802c-1.316,0 -2.386,-1.07 -2.386,-2.386c0,-1.315 1.07,-2.385 2.386,-2.385c1.315,0 2.386,1.07 2.386,2.385c0,1.316 -1.071,2.386 -2.386,2.386" style="fill-rule:nonzero;"/><path d="M175.603,38.777l-2.165,0l-4.013,-2.639c-0.411,-0.27 -0.943,-0.27 -1.354,0l-4.013,2.639l-2.165,0c-4.065,0 -7.36,-3.296 -7.36,-7.361c0,-4.065 3.295,-7.36 7.36,-7.36c3.119,0 5.783,1.941 6.855,4.68c1.072,-2.739 3.736,-4.68 6.855,-4.68c4.065,0 7.36,3.295 7.36,7.36c0,4.065 -3.295,7.361 -7.36,7.361m3.599,11.257l-2.68,0l0,-3.477l2.68,0l0,3.477Zm-5.003,6.031l-2.68,0l0,-3.477l2.68,0l0,3.477Zm-4.111,-6.031l-2.68,0l0,-3.477l2.68,0l0,3.477Zm-1.34,-6.295l-2.384,-3.528l2.384,-1.567l2.383,1.567l-2.383,3.528Zm-2.771,12.326l-2.68,0l0,-3.477l2.68,0l0,3.477Zm-5.003,-6.031l-2.68,0l0,-3.477l2.68,0l0,3.477Zm22.032,-27.366l2.138,-8.404c0,0 -3.664,2.22 -8.396,3.217c-2.681,-1.415 -5.511,-2.127 -8,-2.127c-2.489,0 -5.319,0.712 -8,2.127c-4.732,-0.997 -8.396,-3.217 -8.396,-3.217l2.138,8.404c-2.472,3.132 -4.129,7.261 -4.129,12.375c0,13.049 8.232,27.565 18.387,27.565c10.155,0 18.387,-14.516 18.387,-27.565c0,-5.114 -1.657,-9.243 -4.129,-12.375" style="fill-rule:nonzero;"/></g><g id="contents1" serif:id="contents"></g></svg>